{"title":"Zoo S0213 1080p AMZN WEBRip HEVC DD5.1 x265","uid":15792135,"size":725627853,"categoryP":"video","categoryS":"hd___tv_shows","magnet":"?xt=urn:btih:d9041d48c8566ddba867d3a7e1417f4baec194b8&amp;dn=Zoo+S0213+1080p+AMZN+WEBRip+HEVC+DD5.1+x265&amp;tr=udp%3A%2F%2Ftracker.leechers-paradise.org%3A6969&amp;tr=udp%3A%2F%2Fzer0day.ch%3A1337&amp;tr=udp%3A%2F%2Fopen.demonii.com%3A1337&amp;tr=udp%3A%2F%2Ftracker.coppersurfer.tk%3A6969&amp;tr=udp%3A%2F%2Fexodus.desync.com%3A6969","seeders":0,"leechers":4,"uploader":"nayhtut","files":1,"time":1473392870,"description":"Source:  Zoo S02E13 1080p AMZN WEBRip DD5.1 x264-KiNGS (1.61 GB)\r\n\r\n\r\nComplete name                  : Zoo.S02E13.1080p.AMZN.WEBRip.HEVC.DD5.1.x265.mkv\r\nFormat                                   : Matroska\r\nFormat version                           : Version 4 / Version 2\r\nFile size                                : 692 MiB\r\nDuration                                 : 42mn 35s\r\nOverall bit rate                         : 2 272 Kbps\r\nWriting application                      : Lavf57.25.100\r\nWriting library                          : Lavf57.25.100\r\n\r\nVideo\r\n\r\nID                                       : 1\r\nFormat                                   : V_MPEGH/ISO/HEVC\r\nCodec ID                                 : V_MPEGH/ISO/HEVC\r\nDuration                                 : 42mn 35s\r\nBit rate                                 : 1 843 Kbps\r\nWidth                                    : 1 920 pixels\r\nHeight                                   : 1 080 pixels\r\nDisplay aspect ratio                     : 16:9\r\nFrame rate                               : 25.000 fps\r\nBits/(Pixel*Frame)                       : 0.036\r\nStream size                              : 561 MiB (81%)\r\nWriting library                          : Lavc57.48.101 libx265\r\nLanguage                                 : English\r\nDefault                                  : Yes\r\nForced                                   : No\r\nDURATION                                 : 00:42:35.131000000\r\n\r\nAudio\r\n\r\nID                                       : 2\r\nFormat                                   : AC-3\r\nFormat/Info                              : Audio Coding 3\r\nMode extension                           : CM (complete main)\r\nFormat settings, Endianness              : Big\r\nCodec ID                                 : A_AC3\r\nDuration                                 : 42mn 35s\r\nBit rate mode                            : Constant\r\nBit rate                                 : 384 Kbps\r\nChannel(s)                               : 6 channels\r\nChannel positions                        : Front: L C R, Side: L R, LFE\r\nSampling rate                            : 48.0 KHz\r\nBit depth                                : 16 bits\r\nCompression mode                         : Lossy\r\nStream size                              : 117 MiB (17%)\r\nWriting library                          : Lavc57.24.102 ac3\r\nLanguage                                 : English\r\nDefault                                  : Yes\r\nForced                                   : No\r\nDURATION                                 : 00:42:35.103000000","torrent":{"xt":"urn:btih:d9041d48c8566ddba867d3a7e1417f4baec194b8","amp;dn":"Zoo+S0213+1080p+AMZN+WEBRip+HEVC+DD5.1+x265","amp;tr":["udp%3A%2F%2Ftracker.leechers-paradise.org%3A6969","udp%3A%2F%2Fzer0day.ch%3A1337","udp%3A%2F%2Fopen.demonii.com%3A1337","udp%3A%2F%2Ftracker.coppersurfer.tk%3A6969","udp%3A%2F%2Fexodus.desync.com%3A6969"],"infoHash":"d9041d48c8566ddba867d3a7e1417f4baec194b8","infoHashBuffer":{"type":"Buffer","data":[217,4,29,72,200,86,109,219,168,103,211,167,225,65,127,75,174,193,148,184]},"announce":[],"urlList":[]}}